<svg xmlns="http://www.w3.org/2000/svg" viewBox="0 0 350.09 191.99"><g id="Layer_2" data-name="Layer 2"><g id="Layer_1-2" data-name="Layer 1"><path d="M228.6,41.13a2.16,2.16,0,0,1-.56,1.44,1.81,1.81,0,0,1-1.41.64,2,2,0,0,1-1.38-.54,2.19,2.19,0,0,1-.69-1.43c0-.14-.12-.82-.24-2a22.22,22.22,0,0,0-1.06-4.44,28.72,28.72,0,0,0-2.69-5.63,21.08,21.08,0,0,0-5-5.56,26.69,26.69,0,0,0-8-4.25,35.44,35.44,0,0,0-11.75-1.7,43.25,43.25,0,0,0-12.3,1.83,53.32,53.32,0,0,0-11.88,5.16A59.52,59.52,0,0,0,161,32.55a55.71,55.71,0,0,0-8.58,10.12,50.41,50.41,0,0,0-5.74,11.81,40.37,40.37,0,0,0-2.1,12.91,28.61,28.61,0,0,0,1.65,10.29,18.26,18.26,0,0,0,4.57,7,17.82,17.82,0,0,0,6.88,4,28.33,28.33,0,0,0,8.53,1.25,39.63,39.63,0,0,0,14.81-2.74,50.48,50.48,0,0,0,12.76-7.39,64.31,64.31,0,0,0,10.71-10.84,102.16,102.16,0,0,0,8.66-13,44.32,44.32,0,0,1,1.52-9.92q1.08-3.42,3.27-3.42a2.54,2.54,0,0,1,2,1,4,4,0,0,1,.83,2.61,14.62,14.62,0,0,1-.91,4.47,44.17,44.17,0,0,1-2.76,6.27c-.11,1.66-.16,3.45-.16,5.37q0,4.2.34,9.19c.24,3.33.6,6.88,1.09,10.63,1.49-.74,2.65-1.28,3.49-1.62s1.44-.56,1.83-.69a2.3,2.3,0,0,1,.75-.16l.26,0a2,2,0,0,1,1.41.56,1.87,1.87,0,0,1,.61,1.46,1.85,1.85,0,0,1-.37,1.14,2,2,0,0,1-1,.72c-.07,0-.68.27-1.84.72s-2.68,1.14-4.59,2.1c.17,1.91.32,3.84.42,5.79s.16,3.92.16,5.9a86.13,86.13,0,0,1-1,13.4,40.56,40.56,0,0,1-3.32,11.21,20.11,20.11,0,0,1-6.14,7.68,15.31,15.31,0,0,1-9.41,2.85,13.31,13.31,0,0,1-5.1-1,11.94,11.94,0,0,1-6.7-6.72,13.7,13.7,0,0,1-1-5.19,23.51,23.51,0,0,1,1.36-7.86,37.44,37.44,0,0,1,3.61-7.5,47.84,47.84,0,0,1,5.19-6.83,76.07,76.07,0,0,1,6-5.93,68.1,68.1,0,0,1,6.09-4.78,49,49,0,0,1,5.5-3.35q-.69-5.31-1.12-10.44c-.28-3.42-.46-6.75-.53-10a75,75,0,0,1-10.18,13,65,65,0,0,1-11.61,9.46,50.6,50.6,0,0,1-12.47,5.77A43.83,43.83,0,0,1,166,93.81a29.7,29.7,0,0,1-10.42-1.73,21.87,21.87,0,0,1-8-5.07,22.36,22.36,0,0,1-5.16-8.29,32.94,32.94,0,0,1-1.81-11.38,43.52,43.52,0,0,1,2.13-13.42,55.17,55.17,0,0,1,5.9-12.6,60.28,60.28,0,0,1,9-11,62,62,0,0,1,11.32-8.75,58.42,58.42,0,0,1,13-5.79,47.17,47.17,0,0,1,13.95-2.1,40.21,40.21,0,0,1,11.91,1.57,31.52,31.52,0,0,1,8.59,4,25.1,25.1,0,0,1,5.74,5.26,32.81,32.81,0,0,1,3.48,5.39,29.05,29.05,0,0,1,1.67,4.2c.41,1.35.71,2.54.91,3.56s.32,1.86.37,2.5S228.6,41.1,228.6,41.13ZM215.15,88.44a57.9,57.9,0,0,0-5.5,3.54,60.68,60.68,0,0,0-5.53,4.49,57.49,57.49,0,0,0-5.08,5.26,44.36,44.36,0,0,0-4.2,5.85,30.42,30.42,0,0,0-2.84,6.25,20.92,20.92,0,0,0-1,6.45,10.05,10.05,0,0,0,.64,3.65,7.84,7.84,0,0,0,1.81,2.76,8.3,8.3,0,0,0,2.76,1.78,9.25,9.25,0,0,0,3.51.64q7.5,0,11.7-8T215.57,98c0-1.53,0-3.08-.1-4.65S215.29,90.11,215.15,88.44Z"/><path d="M257.25,86.37a11.54,11.54,0,0,1-2.34-.21,16,16,0,0,1-1.91,3,12.87,12.87,0,0,1-2.58,2.36,12.43,12.43,0,0,1-3.27,1.6,12.74,12.74,0,0,1-3.93.58,11.75,11.75,0,0,1-4.58-.87A11.1,11.1,0,0,1,235,90.33a10.7,10.7,0,0,1-2.39-3.77A14.7,14.7,0,0,1,233,75.77a15.88,15.88,0,0,1,2.82-4.2,12.08,12.08,0,0,1,3.19-2.5,6,6,0,0,1,2.39-.83,1.76,1.76,0,0,1,1.35.48,1.81,1.81,0,0,1,.46,1.28,1.64,1.64,0,0,1-.56,1.35,7.48,7.48,0,0,1-1.41.88,9.73,9.73,0,0,0-1.81,1.2,9.32,9.32,0,0,0-1.78,1.94,10.44,10.44,0,0,0-1.35,2.76,11,11,0,0,0-.54,3.56,9.67,9.67,0,0,0,.54,3.27,7.16,7.16,0,0,0,3.93,4.31,7.49,7.49,0,0,0,3.08.61,8.51,8.51,0,0,0,5-1.41,9.29,9.29,0,0,0,3.05-3.59,13.84,13.84,0,0,1-5.15-4.68,11.94,11.94,0,0,1-2-6.8,7.86,7.86,0,0,1,1.46-4.94,4.6,4.6,0,0,1,3.85-1.92,5.6,5.6,0,0,1,2.71.69,6.4,6.4,0,0,1,2.26,2.18,12.27,12.27,0,0,1,1.57,3.83,23.23,23.23,0,0,1,.59,5.58,16.15,16.15,0,0,1-.43,3.56,3.47,3.47,0,0,0,.64.06h.69a11.2,11.2,0,0,0,3.24-.43,8.36,8.36,0,0,0,2.61-1.28,9.06,9.06,0,0,0,2.1-2.17,23.14,23.14,0,0,0,1.78-3.09,1.57,1.57,0,0,1,.69-.61,2.23,2.23,0,0,1,1.06-.29,1.9,1.9,0,0,1,1.3.56,1.87,1.87,0,0,1,.61,1.46,2.47,2.47,0,0,1-.21.93q-.21.51-.42.93a23.74,23.74,0,0,1-2.1,3.06,13.24,13.24,0,0,1-2.82,2.55,14.56,14.56,0,0,1-3.64,1.73A14,14,0,0,1,257.25,86.37ZM248.16,73a9,9,0,0,0,.27,2.13,9.56,9.56,0,0,0,.82,2.21,11.3,11.3,0,0,0,1.38,2.07,8,8,0,0,0,1.94,1.67,14.83,14.83,0,0,0,.16-2.18,20.91,20.91,0,0,0-.21-2.92,17.55,17.55,0,0,0-.61-2.74,6.92,6.92,0,0,0-1-2,1.71,1.71,0,0,0-1.38-.77,1.52,1.52,0,0,0-.85.48A2.88,2.88,0,0,0,248.16,73Z"/><path d="M297.38,77.49c-.39.82-.87,1.78-1.46,2.9s-1.25,2.28-2,3.48a42.29,42.29,0,0,1-2.5,3.59,22.26,22.26,0,0,1-3,3.19A15.61,15.61,0,0,1,285,92.94a9,9,0,0,1-3.91.87,8.11,8.11,0,0,1-5.47-2,16.36,16.36,0,0,1-3.88-5.16,34.7,34.7,0,0,1-2.58-7.26,73,73,0,0,1-1.51-8.29c-.36-2.82-.6-5.55-.72-8.21s-.19-5-.19-7.07q0-4.47.29-9.25t.93-9.36c.43-3,1-5.93,1.63-8.66a42.67,42.67,0,0,1,2.33-7.18A17,17,0,0,1,275,16.52a5.45,5.45,0,0,1,4-1.81,6.11,6.11,0,0,1,3.16.83,6.36,6.36,0,0,1,2.37,2.68A17.45,17.45,0,0,1,286,23.06a42.67,42.67,0,0,1,.53,7.28,56.29,56.29,0,0,1-1.12,11,91.66,91.66,0,0,1-3,11.4,116.2,116.2,0,0,1-4.51,11.46q-2.61,5.71-5.59,11.13a35.38,35.38,0,0,0,3.56,10.61q2.23,3.85,5.37,3.85a6.29,6.29,0,0,0,4.1-1.67,22.61,22.61,0,0,0,3.61-4,40,40,0,0,0,2.9-4.65c.83-1.58,1.48-2.85,1.94-3.8a2,2,0,0,1,.74-.83,2.07,2.07,0,0,1,1.07-.29,1.83,1.83,0,0,1,1.46.64,2.12,2.12,0,0,1,.56,1.43A2.52,2.52,0,0,1,297.38,77.49ZM270.75,56.12c0,2.27.06,4.45.16,6.54s.25,4.09.43,6q2.24-4.31,4.25-9.17t3.56-9.84a88.6,88.6,0,0,0,2.47-9.88,50.59,50.59,0,0,0,.93-9.39c0-4.18-.33-7.17-1-9S280,18.7,278.83,18.7c-.74,0-1.46.51-2.15,1.54a18.08,18.08,0,0,0-1.94,4.2,53.77,53.77,0,0,0-1.65,6.27c-.5,2.41-.91,5-1.25,7.77s-.6,5.65-.8,8.66S270.75,53.15,270.75,56.12Z"/><path d="M314.39,76.75Q317,89,321.94,89a5.78,5.78,0,0,0,3.67-1.41,18.41,18.41,0,0,0,3.27-3.46,30.38,30.38,0,0,0,2.68-4.33c.78-1.52,1.42-2.85,1.92-4a2,2,0,0,1,3.29-.64,2,2,0,0,1,.59,1.38,1.58,1.58,0,0,1-.16.74c-.25.61-.61,1.41-1.09,2.42A35.77,35.77,0,0,1,334.35,83c-.69,1.16-1.46,2.33-2.31,3.54a21,21,0,0,1-2.82,3.24A15.47,15.47,0,0,1,326,92.14a7.62,7.62,0,0,1-3.65.93,8.5,8.5,0,0,1-6.11-2.47q-2.55-2.47-4.41-8.16a26.08,26.08,0,0,1-5.16,7.86A8.09,8.09,0,0,1,301,92.75a9.39,9.39,0,0,1-3.08-.51,6.32,6.32,0,0,1-2.61-1.67,8.83,8.83,0,0,1-1.81-3,12.86,12.86,0,0,1-.69-4.5,17.53,17.53,0,0,1,1.28-6.75A18.16,18.16,0,0,1,297.38,71a15.4,15.4,0,0,1,4.5-3.43,11,11,0,0,1,4.91-1.22,2,2,0,0,1,1.39.56,1.89,1.89,0,0,1,.58,1.41,2,2,0,0,1-.48,1.33,1.9,1.9,0,0,1-1.27.69,12.65,12.65,0,0,0-3.41,1,10.94,10.94,0,0,0-3.32,2.31,12,12,0,0,0-2.5,3.86,14.46,14.46,0,0,0-1,5.58,6.86,6.86,0,0,0,1.09,4.14,3.65,3.65,0,0,0,3.16,1.49,4.27,4.27,0,0,0,1.81-.45,6.33,6.33,0,0,0,2.05-1.78,24.35,24.35,0,0,0,2.39-3.77,66.14,66.14,0,0,0,2.89-6.44q-.9-4.66-1.64-10.79a112.85,112.85,0,0,1-.75-13.66q0-3.3.22-6.88t.69-7A58.19,58.19,0,0,1,310,31.46,28.69,28.69,0,0,1,311.92,26a11.69,11.69,0,0,1,2.69-3.7A5.15,5.15,0,0,1,318.12,21a4.71,4.71,0,0,1,3,1,7,7,0,0,1,2,2.66,16.19,16.19,0,0,1,1.14,4.09A34.22,34.22,0,0,1,324.6,34a72.3,72.3,0,0,1-1.06,12.33q-1.07,6.16-2.63,11.8t-3.33,10.42C316.41,71.7,315.35,74.44,314.39,76.75Zm6.22-42.85c0-.88,0-1.84-.08-2.87a17.27,17.27,0,0,0-.37-2.89,8.51,8.51,0,0,0-.77-2.26,1.42,1.42,0,0,0-1.27-.91c-.89,0-1.72.78-2.48,2.34a28.74,28.74,0,0,0-2,6.14,76.56,76.56,0,0,0-1.36,8.61,94.74,94.74,0,0,0-.5,9.7q0,4.68.37,9.36t.85,8.35c1-2.73,2-5.54,2.93-8.43s1.72-5.84,2.41-8.85,1.24-6,1.65-9.12A69,69,0,0,0,320.61,33.9Z"/><path d="M140.7,169.61a38.9,38.9,0,0,1-6.75,8,53.77,53.77,0,0,1-9.7,7.13,55.63,55.63,0,0,1-11.88,5.1,45.9,45.9,0,0,1-13.29,1.94,60.41,60.41,0,0,1-10.71-1,52.74,52.74,0,0,1-10.26-2.92,43.59,43.59,0,0,1-9.14-5,34,34,0,0,1-7.37-7.1,32.26,32.26,0,0,1-4.91-9.3,35.6,35.6,0,0,1-1.78-11.59,37.61,37.61,0,0,1,1.83-11.8,39.78,39.78,0,0,1,5.13-10.34,44.34,44.34,0,0,1,7.81-8.58,49.36,49.36,0,0,1,9.89-6.52,53.13,53.13,0,0,1,11.32-4.12,52.16,52.16,0,0,1,12.18-1.43A49.58,49.58,0,0,1,116,113.77a36.35,36.35,0,0,1,10.55,4.57,23.88,23.88,0,0,1,7.15,7.07,16.74,16.74,0,0,1,2.63,9.17,19.16,19.16,0,0,1-2.18,8.9,24,24,0,0,1-6,7.42,29.23,29.23,0,0,1-8.88,5,31.17,31.17,0,0,1-10.81,1.86,26.83,26.83,0,0,1-8.19-1.14,17.36,17.36,0,0,1-6-3.16,13.35,13.35,0,0,1-3.62-4.74,14.08,14.08,0,0,1-1.22-5.84,13.18,13.18,0,0,1,.82-4.76,19.83,19.83,0,0,1,1.81-3.69A14.63,14.63,0,0,1,94,132.06l1-1a1.27,1.27,0,0,1,.62-.34,2.59,2.59,0,0,1,.66-.08,2.06,2.06,0,0,1,1.43.53,1.77,1.77,0,0,1,.59,1.38,2.1,2.1,0,0,1-.69,1.6,6,6,0,0,0-.75.71,13.78,13.78,0,0,0-1.38,1.81,14.28,14.28,0,0,0-1.35,2.74,9.65,9.65,0,0,0-.61,3.51A9.14,9.14,0,0,0,94.8,148a10.71,10.71,0,0,0,3.54,3.38,16,16,0,0,0,4.83,1.86,26,26,0,0,0,5.32.55,26.77,26.77,0,0,0,9.28-1.59,26,26,0,0,0,7.57-4.25,20.29,20.29,0,0,0,5.1-6.12,15,15,0,0,0,1.86-7.23,13.21,13.21,0,0,0-2.33-7.57,20.2,20.2,0,0,0-6.33-5.85,33.71,33.71,0,0,0-9.33-3.75,47.38,47.38,0,0,0-11.4-1.32,45.09,45.09,0,0,0-9.6,1.09,50.41,50.41,0,0,0-9.91,3.26,51.53,51.53,0,0,0-9.33,5.43,38.55,38.55,0,0,0-7.79,7.57,36.66,36.66,0,0,0-5.34,9.7,33.51,33.51,0,0,0-2,11.75,31.87,31.87,0,0,0,1.62,10.47,28.22,28.22,0,0,0,4.49,8.32,30.49,30.49,0,0,0,6.72,6.3,40.37,40.37,0,0,0,8.3,4.39A47.51,47.51,0,0,0,89.35,187a57.15,57.15,0,0,0,9.62.82A42.12,42.12,0,0,0,111.25,186a51.29,51.29,0,0,0,10.93-4.68,48.61,48.61,0,0,0,8.9-6.51,36.72,36.72,0,0,0,6.17-7.28,1.66,1.66,0,0,1,.74-.72,2.24,2.24,0,0,1,1-.24,1.85,1.85,0,0,1,1.44.61,2,2,0,0,1,.53,1.36,3.17,3.17,0,0,1-.05.53A1.61,1.61,0,0,1,140.7,169.61Z"/><path d="M150.38,184.81c.56-1.2,1.22-2.5,2-3.9s1.55-2.84,2.4-4.31,1.75-2.93,2.71-4.38,2-2.82,3-4.1a10.65,10.65,0,0,1,3.11-2.68,6.38,6.38,0,0,1,2.95-.82,5.05,5.05,0,0,1,2.42.55,4.88,4.88,0,0,1,1.7,1.52,7,7,0,0,1,1,2.23,10.56,10.56,0,0,1,.35,2.77,29.41,29.41,0,0,1-.24,3.26,36.94,36.94,0,0,0-.24,4.28,23.55,23.55,0,0,0,.13,2.53,9.94,9.94,0,0,0,.48,2.23,3.75,3.75,0,0,0,1,1.6,2.66,2.66,0,0,0,1.81.61,5.15,5.15,0,0,0,2.55-.72,12.5,12.5,0,0,0,2.5-1.91,25.34,25.34,0,0,0,2.33-2.66c.75-1,1.42-1.95,2-2.93s1.13-1.91,1.59-2.81.83-1.66,1.12-2.26a1.86,1.86,0,0,1,1.86-1.22,1.77,1.77,0,0,1,1.43.63,2.11,2.11,0,0,1,.53,1.39,1.89,1.89,0,0,1-.16.79c-.14.29-.41.87-.82,1.76s-1,1.91-1.65,3.08-1.5,2.39-2.42,3.67a27.12,27.12,0,0,1-3.05,3.53,16.06,16.06,0,0,1-3.62,2.66,8.52,8.52,0,0,1-4.06,1,6.78,6.78,0,0,1-3.94-1,7.21,7.21,0,0,1-2.31-2.63,11.42,11.42,0,0,1-1.12-3.56,26.73,26.73,0,0,1-.29-3.83c0-.64,0-1.32.08-2.05s.12-1.44.19-2.15.13-1.37.18-2,.08-1.15.08-1.57a3.88,3.88,0,0,0-.45-2.23,1.31,1.31,0,0,0-1-.59,3.12,3.12,0,0,0-1.94,1,18.46,18.46,0,0,0-2.28,2.57,40.65,40.65,0,0,0-2.39,3.59q-1.2,2-2.32,4c-.74,1.31-1.41,2.56-2,3.75s-1.1,2.17-1.48,2.95a7.8,7.8,0,0,1-2.26,3,3.77,3.77,0,0,1-2,.77,2.87,2.87,0,0,1-2.53-1.3,5.56,5.56,0,0,1-.87-3.16v-3.35q0-10.05,0-19.16t.27-17q.24-7.84.8-14.19a72.11,72.11,0,0,1,1.67-10.85,21,21,0,0,1,2.85-6.94,5.13,5.13,0,0,1,4.33-2.44,5.9,5.9,0,0,1,3.77,1.22,8.91,8.91,0,0,1,2.5,3.32,18.27,18.27,0,0,1,1.38,4.9,38,38,0,0,1,.43,5.87,66.07,66.07,0,0,1-1.14,12.3,92.53,92.53,0,0,1-3.06,11.78,104.34,104.34,0,0,1-4.47,11.19q-2.55,5.44-5.37,10.6v9.31Zm0-19.61q2.24-4.89,4.06-9.54a94.76,94.76,0,0,0,3.14-9.28,80.79,80.79,0,0,0,2-9.38,64.88,64.88,0,0,0,.74-9.91c0-.57,0-1.47-.08-2.72a22.75,22.75,0,0,0-.48-3.77,11.14,11.14,0,0,0-1.22-3.35,2.56,2.56,0,0,0-2.31-1.43c-.78,0-1.46.52-2,1.57a17.22,17.22,0,0,0-1.49,4.25,54.32,54.32,0,0,0-1.06,6.24c-.29,2.38-.52,4.89-.69,7.55s-.32,5.39-.4,8.19-.15,5.52-.19,8.16-.05,5.11-.05,7.41Z"/><path d="M211.56,183.49a11,11,0,0,1-2.34-.22,15.37,15.37,0,0,1-1.91,2.95,12.33,12.33,0,0,1-5.85,4,12.65,12.65,0,0,1-3.93.59,11.49,11.49,0,0,1-4.57-.88,10.75,10.75,0,0,1-6-6.22,13.34,13.34,0,0,1-.85-4.86,13.53,13.53,0,0,1,1.22-5.93,16.74,16.74,0,0,1,2.82-4.2,12.45,12.45,0,0,1,3.19-2.5,5.93,5.93,0,0,1,2.39-.82,1.8,1.8,0,0,1,1.36.48,1.78,1.78,0,0,1,.45,1.27,1.65,1.65,0,0,1-.56,1.36,8,8,0,0,1-1.41.88,10.16,10.16,0,0,0-1.81,1.19,9.87,9.87,0,0,0-1.78,1.94,10.35,10.35,0,0,0-1.35,2.77,11,11,0,0,0-.53,3.56,9.67,9.67,0,0,0,.53,3.27,7.27,7.27,0,0,0,1.54,2.6,7,7,0,0,0,2.39,1.7,7.49,7.49,0,0,0,3.08.61,8.58,8.58,0,0,0,5-1.4,9.28,9.28,0,0,0,3.05-3.59,13.84,13.84,0,0,1-5.15-4.68,12,12,0,0,1-2-6.8,7.91,7.91,0,0,1,1.46-5,4.62,4.62,0,0,1,3.85-1.91,5.6,5.6,0,0,1,2.71.69,6.32,6.32,0,0,1,2.26,2.18,12.27,12.27,0,0,1,1.57,3.83,23.23,23.23,0,0,1,.59,5.58,15.64,15.64,0,0,1-.43,3.56,4.6,4.6,0,0,0,.64.05h.69a11.47,11.47,0,0,0,3.24-.42,8.58,8.58,0,0,0,2.61-1.28,9.11,9.11,0,0,0,2.1-2.18,22.37,22.37,0,0,0,1.78-3.08,1.57,1.57,0,0,1,.69-.61,2.12,2.12,0,0,1,1.06-.29,2,2,0,0,1,1.92,2,2.32,2.32,0,0,1-.22.93q-.21.5-.42.93a21.22,21.22,0,0,1-2.1,3.05,12.73,12.73,0,0,1-2.82,2.55,13.74,13.74,0,0,1-3.64,1.73A14,14,0,0,1,211.56,183.49Zm-9.09-13.4a9.14,9.14,0,0,0,.27,2.13,9.49,9.49,0,0,0,.82,2.2,11,11,0,0,0,1.38,2.08,8.2,8.2,0,0,0,1.94,1.67A14.83,14.83,0,0,0,207,176a20.8,20.8,0,0,0-.21-2.92,16.26,16.26,0,0,0-.61-2.74,6.79,6.79,0,0,0-1-2,1.72,1.72,0,0,0-1.39-.77,1.52,1.52,0,0,0-.85.48A2.88,2.88,0,0,0,202.47,170.09Z"/><path d="M256.21,174.61c-.21.39-.57,1.1-1.09,2.12a31.77,31.77,0,0,1-2.07,3.49,40.18,40.18,0,0,1-3.11,4,26,26,0,0,1-4.14,3.8,22.75,22.75,0,0,1-5.24,2.85,17.45,17.45,0,0,1-6.3,1.11,12.53,12.53,0,0,1-5.37-1.09,11.23,11.23,0,0,1-4-3.08,13.78,13.78,0,0,1-2.49-4.71,19.81,19.81,0,0,1-.85-6,19.35,19.35,0,0,1,.9-6,16.4,16.4,0,0,1,2.47-4.87,12.36,12.36,0,0,1,3.64-3.27A8.74,8.74,0,0,1,233,161.8a8,8,0,0,1,3.19.61,7.34,7.34,0,0,1,2.42,1.62,7.75,7.75,0,0,1,1.54,2.23,5.75,5.75,0,0,1,.56,2.45,8,8,0,0,1-.29,2.18,8.07,8.07,0,0,1-.74,1.78,4.37,4.37,0,0,1-1,1.22,1.94,1.94,0,0,1-2.63-.13,2,2,0,0,1-.56-1.44,1.38,1.38,0,0,1,.19-.74c.12-.21.26-.44.42-.67a4,4,0,0,0,.43-.85,3.91,3.91,0,0,0,.18-1.3,2.64,2.64,0,0,0-1-2,3.9,3.9,0,0,0-2.64-.9,5,5,0,0,0-2.84.9,8.69,8.69,0,0,0-2.37,2.42,13.41,13.41,0,0,0-1.62,3.56,15.36,15.36,0,0,0-.61,4.33,16,16,0,0,0,.53,4.15,11.11,11.11,0,0,0,1.6,3.48,8,8,0,0,0,2.68,2.42,7.84,7.84,0,0,0,3.86.9,13.48,13.48,0,0,0,5.31-1,19.54,19.54,0,0,0,4.47-2.63,23.55,23.55,0,0,0,3.56-3.49,39.75,39.75,0,0,0,2.63-3.56,27.85,27.85,0,0,0,1.7-2.92c.41-.83.65-1.36.72-1.57a1.6,1.6,0,0,1,.72-.82,2.07,2.07,0,0,1,1.09-.29,1.86,1.86,0,0,1,1.46.63,2.16,2.16,0,0,1,.56,1.44A2.52,2.52,0,0,1,256.21,174.61Z"/><path d="M282.85,174.61c-.39.81-.88,1.78-1.47,2.9s-1.24,2.27-2,3.48a41.6,41.6,0,0,1-2.5,3.59,22.8,22.8,0,0,1-3,3.19,15.34,15.34,0,0,1-3.46,2.28,8.84,8.84,0,0,1-3.9.88,8.12,8.12,0,0,1-5.48-2,16.34,16.34,0,0,1-3.88-5.15,34.7,34.7,0,0,1-2.58-7.26,75.66,75.66,0,0,1-1.51-8.29q-.54-4.23-.72-8.22c-.12-2.65-.19-5-.19-7.07,0-3,.1-6.06.3-9.25s.5-6.3.93-9.35A88,88,0,0,1,255,125.7a41.63,41.63,0,0,1,2.34-7.17,16.28,16.28,0,0,1,3.11-4.89,5.41,5.41,0,0,1,4-1.81,6.16,6.16,0,0,1,3.17.82,6.37,6.37,0,0,1,2.36,2.69,17.12,17.12,0,0,1,1.49,4.84,42.67,42.67,0,0,1,.53,7.28,57.12,57.12,0,0,1-1.11,11,95.29,95.29,0,0,1-3,11.4,119.7,119.7,0,0,1-4.52,11.45q-2.61,5.72-5.58,11.14a34.66,34.66,0,0,0,3.56,10.6c1.49,2.57,3.27,3.86,5.37,3.86a6.25,6.25,0,0,0,4.09-1.68,21.56,21.56,0,0,0,3.61-4,38.42,38.42,0,0,0,2.9-4.65c.83-1.57,1.48-2.84,1.94-3.8A2,2,0,0,1,280,172a2,2,0,0,1,1.07-.29,1.86,1.86,0,0,1,1.46.63,2.16,2.16,0,0,1,.56,1.44A2.46,2.46,0,0,1,282.85,174.61Zm-26.64-21.37c0,2.27.06,4.45.16,6.54s.25,4.09.43,6q2.24-4.31,4.25-9.17t3.56-9.83a88.76,88.76,0,0,0,2.47-9.89,50.45,50.45,0,0,0,.94-9.38q0-6.27-1-9c-.68-1.81-1.58-2.71-2.72-2.71-.74,0-1.46.51-2.15,1.54a18.08,18.08,0,0,0-1.94,4.2,53.77,53.77,0,0,0-1.65,6.27q-.74,3.62-1.25,7.76c-.33,2.76-.6,5.65-.79,8.67S256.21,150.26,256.21,153.24Z"/><path d="M285.61,183.49a8.3,8.3,0,0,0,2.87,2.47,10,10,0,0,0,9-.32,15.64,15.64,0,0,0,3.88-3.27,26.05,26.05,0,0,0,3.13-4.52q1.39-2.49,2.5-5a1.93,1.93,0,0,1,1.81-1.16,1.86,1.86,0,0,1,1.46.63,2.09,2.09,0,0,1,.56,1.39,2,2,0,0,1-.05.45,3.69,3.69,0,0,1-.16.4q-3.67,8.07-8,12.17a14.34,14.34,0,0,1-9.81,4.2,12.41,12.41,0,0,1-10.26-4.87,14.62,14.62,0,0,1-2.44-4.86,18.83,18.83,0,0,1-.8-5.42,18,18,0,0,1,.66-5,12.53,12.53,0,0,1,1.92-4,9.12,9.12,0,0,1,3-2.65,7.69,7.69,0,0,1,3.8-1,6.12,6.12,0,0,1,2.42.51,6.84,6.84,0,0,1,2.16,1.43,7.18,7.18,0,0,1,1.54,2.26,7.48,7.48,0,0,1,.58,3,11.29,11.29,0,0,1-.74,4.09,13.62,13.62,0,0,1-2,3.56,17.56,17.56,0,0,1-3.11,3A22.63,22.63,0,0,1,285.61,183.49ZM284,180a13.17,13.17,0,0,0,3-1.75,12.77,12.77,0,0,0,2.31-2.34,10.66,10.66,0,0,0,1.49-2.69,8.07,8.07,0,0,0,.53-2.84,3.32,3.32,0,0,0-.8-2.42,2.5,2.5,0,0,0-1.86-.82,3.82,3.82,0,0,0-2.44.79A6,6,0,0,0,284.6,170a10.76,10.76,0,0,0-.93,2.84,16.52,16.52,0,0,0-.29,3.11,12.11,12.11,0,0,0,.18,2C283.69,178.72,283.84,179.39,284,180Z"/><path d="M350.09,136.12a1.74,1.74,0,0,1-.58,1.36,2.11,2.11,0,0,1-1.44.5H321.12v.59a53.46,53.46,0,0,1-.48,6.91q-.48,3.66-1.3,7.31t-1.86,7.09c-.69,2.31-1.4,4.43-2.13,6.38a53.32,53.32,0,0,1-2.15,5.08,19.27,19.27,0,0,1-1.91,3.22,32.66,32.66,0,0,0,1.64,4.54,19.19,19.19,0,0,0,2.16,3.67,10.45,10.45,0,0,0,2.57,2.47,5.39,5.39,0,0,0,3,.9,5.74,5.74,0,0,0,3.7-1.56,21.92,21.92,0,0,0,3.4-3.73,39.51,39.51,0,0,0,2.76-4.35,36.14,36.14,0,0,0,1.73-3.54,2,2,0,0,1,3.32-.64,2.09,2.09,0,0,1,.56,1.39,1.83,1.83,0,0,1-.16.74c-.11.25-.36.82-.77,1.7s-.94,1.91-1.59,3.08-1.42,2.41-2.29,3.7a22.74,22.74,0,0,1-2.92,3.53,17.08,17.08,0,0,1-3.49,2.66,7.78,7.78,0,0,1-3.93,1.06,10.11,10.11,0,0,1-6.59-2.39,18.93,18.93,0,0,1-5-6.7,40.35,40.35,0,0,1-3.11-10.2A72.92,72.92,0,0,1,305.22,158c0-1.17,0-2.54.06-4.12s.11-3.24.21-5,.27-3.56.48-5.42.5-3.67.85-5.45H287.74a2.11,2.11,0,0,1-1.44-.5,1.71,1.71,0,0,1-.58-1.36,1.69,1.69,0,0,1,.58-1.35,2.11,2.11,0,0,1,1.44-.51h20a25.7,25.7,0,0,1,1.25-3.51,13.09,13.09,0,0,1,1.65-2.76,7.38,7.38,0,0,1,2.07-1.83,4.91,4.91,0,0,1,2.53-.67,4,4,0,0,1,2.31.67,5.62,5.62,0,0,1,1.68,1.83,10.53,10.53,0,0,1,1.09,2.76,27.74,27.74,0,0,1,.61,3.51h27.16a2.11,2.11,0,0,1,1.44.51A1.72,1.72,0,0,1,350.09,136.12Zm-40,33.12a68.08,68.08,0,0,0,2.9-7.58c.87-2.71,1.61-5.44,2.23-8.21s1.1-5.47,1.44-8.13a59.94,59.94,0,0,0,.5-7.34h-6.27a66.34,66.34,0,0,0-1.2,8.16q-.45,4.88-.45,11.83,0,3.89.22,6.51A41.83,41.83,0,0,0,310.06,169.24ZM315,129.48c-.32,0-.78.34-1.39,1a11.53,11.53,0,0,0-1.8,3.74h5.1a14.5,14.5,0,0,0-.77-3.51C315.81,129.9,315.43,129.48,315,129.48Z"/><path d="M24,62.39c-1.85,0-3.5,0-5-.15-3.9-.25-6.38-.85-7.56-1.81a2.28,2.28,0,0,1-.81-1.18A5.83,5.83,0,0,1,8.36,54.7c.06-2.71,2.32-5.44,6.71-8.11a12.18,12.18,0,0,1,.77-4.29,11.3,11.3,0,0,1,7.26-6.78A15.38,15.38,0,0,1,25,31.46a8.82,8.82,0,0,1,7.41-4.3,12.6,12.6,0,0,1,3.4-3.48c3.6-2.65,8.7-4.46,15.15-5.4a28.23,28.23,0,0,1,8.94.16,35.81,35.81,0,0,1,9,2.7,40.06,40.06,0,0,1,10.22,6.68.64.64,0,0,1-.26,1.1S74.29,30.2,68,34.73c-5.81,4.19-14.36,12.09-22.06,26a.61.61,0,0,1-.49.33c-.07,0-7.31.84-15,1.19Q26.92,62.4,24,62.39Zm8.43-33.95a7.48,7.48,0,0,0-6.39,3.71,14.21,14.21,0,0,0-1.81,4,.64.64,0,0,1-.43.47,10.08,10.08,0,0,0-6.77,6.07,10.56,10.56,0,0,0-.69,4.19.66.66,0,0,1-.31.61c-4.14,2.46-6.36,5-6.41,7.23a4.63,4.63,0,0,0,2,3.61.65.65,0,0,1,.29.48.94.94,0,0,0,.39.61c1,.83,4.71,2.12,18,1.51,6.74-.3,13.12-1,14.61-1.14A91.28,91.28,0,0,1,56.45,43.5a67.16,67.16,0,0,1,10.86-9.86,43.48,43.48,0,0,1,10.12-5.59,36.44,36.44,0,0,0-17.69-8.33,27.21,27.21,0,0,0-8.57-.17h0c-7.7,1.12-12.13,3.39-14.49,5.09a10.22,10.22,0,0,0-3.29,3.43.65.65,0,0,1-.61.38Z"/><path d="M42.65,68.21h-37a.57.57,0,0,1-.18,0,8.2,8.2,0,0,1-4.79-4c-1-2.09-.83-4.59.43-7.45A130,130,0,0,1,11.21,38.1,76.19,76.19,0,0,1,22.37,24.49c4.69-4.38,9.38-7,13.94-7.92a109.44,109.44,0,0,1,16.61-4.32,41.39,41.39,0,0,1,12.55-.54c4,.59,6.64,2.16,7.9,4.69a12.34,12.34,0,0,1,5.47-.58c.38.08.73.13,1,.17a2.77,2.77,0,0,1,2,.87c.46.6.65,1.55.65,3.29a.59.59,0,0,1,0,.23A15.62,15.62,0,0,0,82,22.11c-.33,1.4-.14,1.79-.11,1.84h0c.36,0,.75,0,1.17,0,1.66-.1,3.54-.2,4.52,1a.78.78,0,0,1,.15.72c-.19.64-1,.93-4,1.93C78.15,29.46,66.51,33.34,59.63,42l-.07.07a65.34,65.34,0,0,0-6.51,7.38,59.15,59.15,0,0,0-9.78,18.32A.66.66,0,0,1,42.65,68.21ZM5.71,66.92H42.17A61.33,61.33,0,0,1,52,48.62a67,67,0,0,1,6.61-7.48,38.78,38.78,0,0,1,12.83-10,82.3,82.3,0,0,1,11.86-4.77c1.07-.35,2.16-.72,2.78-1a7.39,7.39,0,0,0-3-.2c-.44,0-.85,0-1.24,0a1.3,1.3,0,0,1-1.1-.56c-.76-1.12.1-3.71.46-4.65a4.75,4.75,0,0,0-.38-2.39c-.18-.23-.51-.28-1.19-.37-.33-.05-.71-.1-1.14-.19-2-.45-5.29.7-5.32.71a.63.63,0,0,1-.81-.36c-2.21-5.53-11.7-5.18-19.28-3.92a109.5,109.5,0,0,0-16.46,4.28l-.09,0c-9.86,1.87-18.66,12.44-24.3,21a129.48,129.48,0,0,0-10,18.41h0C1.14,59.7,1,61.85,1.8,63.59A6.92,6.92,0,0,0,5.71,66.92Z"/><path d="M37.84,75.62h-.12C36.6,75.41,10.16,70.72,5,68.14a.64.64,0,0,1,.28-1.22H40.8a.68.68,0,0,1,.48.21.65.65,0,0,1,.16.5c0,.22-.55,5.46-3.17,7.82A.65.65,0,0,1,37.84,75.62ZM9,68.21c8.3,2.4,26,5.6,28.64,6.07,1.57-1.63,2.22-4.69,2.43-6.07Z"/><path d="M19.7,62.28h0c-5.82-.1-8-1.75-8.14-1.82a.93.93,0,0,1-.14-.14,8.46,8.46,0,0,1-1.58-6.76c.84-3.86,4.4-6.41,5.35-7,2.45-9,6.82-10.76,8.05-11.08,2.65-4.29,7.4-8.34,14.14-12.05A69,69,0,0,1,46.88,19a.59.59,0,0,1,.52,0l.43-.23c9-4.77,17-.14,20.88,2.09.66.37,1.22.69,1.61.87,1.06.48,1.61,1.08,1.63,1.81,0,1-1,1.72-1.46,2a2.74,2.74,0,0,1-2.31.91,9.16,9.16,0,0,1-6.31-3.18c-.64-1-3.87-.05-5.86.87a.64.64,0,0,1-.7-.1c-1.45-1.29-4.68.34-6,1.19a5.69,5.69,0,0,0-.64,2.17,1.06,1.06,0,0,1,.49.24.79.79,0,0,1,.29.6.91.91,0,0,1-.56.87,1,1,0,0,1-1.07-.28,1.14,1.14,0,0,1-.16-.23,38.86,38.86,0,0,0-4.93.53h-.17l-2.22-.25a.62.62,0,0,0-.58.17c-.51.52-.54,2-.44,2.82a.64.64,0,0,1-.36.65.66.66,0,0,1-.74-.12c-1-1-4.21.61-5.6,1.56a.65.65,0,0,1-.74,0h0a10.21,10.21,0,0,0-.21,3.79.62.62,0,0,1-.38.64.65.65,0,0,1-.73-.15c-.84-.91-2.89.23-2.91.24l-.1,0a43.37,43.37,0,0,0,.42,6.2.63.63,0,0,1-.17.51.66.66,0,0,1-.51.21l-4.44-.25c-.85-.05-1.05.27-1.11.38-.67,1.07.59,4.34,1.7,6.32a.65.65,0,0,1-.18.84.63.63,0,0,1-.85-.1A2,2,0,0,0,21,52.14a4.51,4.51,0,0,0-3,2,3.42,3.42,0,0,0-.84,2.68c.3,2.34,2.93,4.28,3,4.3a.63.63,0,0,1,.23.72A.65.65,0,0,1,19.7,62.28Zm-7.3-2.79a13.08,13.08,0,0,0,5.54,1.42A7.41,7.41,0,0,1,15.85,57,4.64,4.64,0,0,1,17,53.33c1.31-1.61,2.66-2.45,4-2.48a3,3,0,0,1,.53,0c-.16-.36-.33-.76-.48-1.18-.85-2.23-1-3.79-.36-4.76a2.3,2.3,0,0,1,2.28-1l3.68.2c-.07-.66-.17-1.66-.25-2.67s-.11-1.83-.1-2.44c0-1,.11-1.58.61-1.79a.73.73,0,0,1,.49,0,4.83,4.83,0,0,1,3-.51c0-.29,0-.61,0-.94,0-1.7.34-2.62.95-3a1.07,1.07,0,0,1,1-.07c1-.64,3.79-2.25,5.77-1.81a4.15,4.15,0,0,1,.85-2.72,1.93,1.93,0,0,1,1.64-.55l2.13.24c.33,0,1.51-.24,2.77-.38.86-.09,1.51-.14,2-.15a7.49,7.49,0,0,1,.83-2.81.75.75,0,0,1,.22-.25c.2-.13,4.73-3.19,7.37-1.44A19.65,19.65,0,0,1,58.45,22c2.3-.6,3.81-.38,4.49.65a7.91,7.91,0,0,0,5.26,2.61,1.48,1.48,0,0,0,1.33-.5.68.68,0,0,1,.24-.2c.42-.22.9-.65.89-.87s-.19-.36-.86-.67c-.45-.2-1-.52-1.73-.93-3.95-2.27-11.31-6.5-19.64-2.06-1.69.9-3,1.56-3.75,2l-.83.41-.23.1a.67.67,0,0,1-.86-.27l0-.06c-1.41.65-3,1.45-4.76,2.4C33.4,27.06,27.3,31.15,24.19,36.35a.67.67,0,0,1-.47.31A5.77,5.77,0,0,0,21,38.2c-1.4,1.27-3.35,3.85-4.69,8.91a.63.63,0,0,1-.29.39s-4.15,2.52-5,6.34A7.18,7.18,0,0,0,12.4,59.49Z"/><path d="M27.45,62.24a13.86,13.86,0,0,1-3.06-.43,34,34,0,0,1-3.69-1.07.62.62,0,0,1-.31-.24c-2.69-4-3.44-6.39-2.36-7.67.73-.86,2.19-1,4.33-.44l.56.16c-1.72-2.83-2.1-4.87-1.16-6.25s3.24-1.6,4.6-1.5c-.92-2.67-.83-4.64.26-5.85,1.22-1.36,3.37-1.37,4.83-1.18-.84-1.57-.93-2.8-.29-3.75.8-1.19,2.73-1.7,5.73-1.51a30.56,30.56,0,0,1,3.21.4A4.63,4.63,0,0,1,41.61,29c1.91-1.59,5.07-1.18,6.57-.85a3.27,3.27,0,0,1,1.22-2.42c2-1.57,5.88-.77,7.58-.32A2.92,2.92,0,0,1,58.35,23c1.22-.65,2.86-.13,4,.44a2.47,2.47,0,0,1,.44-2.18c1.21-1.37,4-.56,4.3-.46a.76.76,0,0,1,.23.13l6.33,5.65c1.15,1,2.62,2.55,2,3.79-.46.9-1.83,1.22-4.31,1-.88-.08-1.72-.2-2.31-.31.16,2.09-.24,3.34-1.22,3.83s-2.35.07-4.16-1.25c-.4-.29-.76-.59-1.08-.86a2.19,2.19,0,0,1-.22.46c-1.38,2.14-6.54,2.34-7.13,2.36l-.18,0c-1.9-.49-5.26-.84-6.17.27-.51.62-.15,1.74.25,2.57,1,2.11,1.11,3.84.31,5.15a5.13,5.13,0,0,1-3.6,2.08c.74,4.34.2,7.18-1.61,8.45s-4.36.6-6-.07a6.18,6.18,0,0,1-1,2A16.3,16.3,0,0,1,36,57.51c-.5.93-1.84,1.23-4.12.91-.55-.08-1.08-.18-1.54-.28a3.16,3.16,0,0,1,.22,2.2,2.3,2.3,0,0,1-1.14,1.32A2.83,2.83,0,0,1,27.45,62.24ZM21.33,59.6c.5.17,1.89.62,3.35,1,2.67.61,3.7.38,3.89.15a.61.61,0,0,1,.28-.19,1,1,0,0,0,.52-.59,3.25,3.25,0,0,0-.83-2.42.63.63,0,0,1,0-.74.62.62,0,0,1,.7-.24,24.78,24.78,0,0,0,2.85.62c2,.28,2.7,0,2.8-.26a.57.57,0,0,1,.12-.18c1.14-1.24,2.07-2.73,2-3.25l-.4-.22a.64.64,0,0,1-.27-.78.65.65,0,0,1,.73-.4,1.66,1.66,0,0,1,.82.41c1.44.71,4.09,1.63,5.6.57s1.76-3.72,1-7.85a.62.62,0,0,1,.13-.52.61.61,0,0,1,.48-.24s2.4-.1,3.28-1.54c.55-.92.42-2.24-.38-3.93s-.84-3-.09-3.94c1.66-2,6.5-.94,7.4-.72,2-.07,5.25-.6,6-1.76a1,1,0,0,0,0-1,.64.64,0,0,1,1-.71c1.43,1.45,4,3.38,4.91,2.92.2-.09.8-.62.41-3.38a.7.7,0,0,1,.2-.56.65.65,0,0,1,.58-.15,28,28,0,0,0,3,.45c2.73.23,3-.31,3-.32s.2-.54-1.7-2.24L66.62,22c-.78-.22-2.32-.44-2.82.12-.33.38-.22,1.25.31,2.45a.64.64,0,0,1-1,.79c-.73-.5-3.09-1.81-4.2-1.21-.51.27-.75,1-.73,2.17a.64.64,0,0,1-.84.62c-1.44-.47-5.53-1.43-7.19-.13A2.33,2.33,0,0,0,49.46,29a.64.64,0,0,1-.23.55.63.63,0,0,1-.59.11s-4.23-1.25-6.21.41c-.85.71-1.19,1.93-1,3.61a.66.66,0,0,1-.21.55.63.63,0,0,1-.57.15c-2.74-.63-7.44-1.07-8.43.4-.58.86.26,2.42,1.07,3.58a.65.65,0,0,1,0,.74.64.64,0,0,1-.7.24c-1-.29-3.87-.77-5,.51-.85.95-.73,2.85.36,5.51a.64.64,0,0,1-.09.65.67.67,0,0,1-.62.23c-.95-.18-3.58-.38-4.4.82-.63.93-.16,2.7,1.36,5.12l.71,1.13.25.11a.55.55,0,0,1,.28.26s.41.69.8,1.38c.24.41.42.73.55,1s.14.26.18.35a.67.67,0,0,1-1.08.78l-.14-.19-.48-.72L24,54.3c-1.84-.75-4.38-1.38-5-.64C18.8,53.92,18.32,55.12,21.33,59.6Z"/><path d="M33,61.52h-.46c-1.92,0-3-.07-3.75-.13-.9-.08-1.65-.2-1.79-.85s.54-1.06.91-1.28,1.06-.56,1.89-1a.74.74,0,0,1,.36-.06h0c.06,0,6.38.68,7.45-3.19a.65.65,0,0,1,.73-.46s4.19.64,6.12-1.62c1.26-1.46,1.35-3.88.29-7.17a.64.64,0,0,1,.22-.71,13.87,13.87,0,0,0,3.71-5c-.09-.82-.29-4,1.6-5.29,1.3-.92,3.21-.77,5.68.45,1.25-.89,5.75-3.89,8.69-3.37a2.89,2.89,0,0,1,2,1.28.65.65,0,0,1,.1.36v1.58a.66.66,0,0,1-.17.44L60.49,42l0,0L54.19,48c-2.11,2.14-7.53,8.26-7.39,11a.65.65,0,0,1-.47.66A59.92,59.92,0,0,1,33,61.52Zm-4-1.4c1,.08,2.62.1,3.53.11a57.21,57.21,0,0,0,13-1.74c.18-1.65,1.47-4,3.85-7,1.92-2.42,3.83-4.36,3.91-4.44v0l6.26-5.91,5.89-6.25V33.75a1.65,1.65,0,0,0-1-.59c-2.34-.41-6.59,2.3-8,3.37a.64.64,0,0,1-.68.06c-2.15-1.13-3.77-1.38-4.69-.73-1.24.88-1.18,3.37-1.06,4.25a.67.67,0,0,1,0,.34,15.17,15.17,0,0,1-3.83,5.36c1.07,3.55.85,6.23-.66,8-2,2.28-5.42,2.23-6.76,2.12-.71,1.77-2.38,2.95-4.86,3.42a14.19,14.19,0,0,1-3.61.19Z"/><path d="M36.68,84.56a.41.41,0,0,1-.16,0,.64.64,0,0,1-.4-.3,4,4,0,0,1-.44-2c0-4.58,4.89-13.13,5.35-13.93A71.57,71.57,0,0,1,53.92,46.12a58.86,58.86,0,0,1,14.8-12.31A48.25,48.25,0,0,1,86,27.47c6.17-2.18,10.82-2,13.82.39,4.46,3.63,3.51,10.92,3.47,11.23a.65.65,0,0,1-.53.55.68.68,0,0,1-.52-.14c-.39,0-1.81.5-6.81,3.74-3.23,2.1-7.48,5.06-12.62,8.78-8.09,5.85-15.9,11.81-17.15,12.76-.25.67-1.23,1.77-4.73,4.34-2.37,1.74-5.66,4-9.77,6.6-7,4.49-14,8.7-14.11,8.74A.67.67,0,0,1,36.68,84.56Zm57-57.35a22.41,22.41,0,0,0-7.34,1.5.4.4,0,0,1-.15,0A47.42,47.42,0,0,0,69.31,35c-8.46,4.94-20,14.82-27.09,33.88a.93.93,0,0,1,0,.1c-.05.09-5.2,9-5.2,13.33A4.9,4.9,0,0,0,37,83c1.9-1.15,7.54-4.56,13.19-8.19,4-2.59,7.3-4.78,9.68-6.51,4-2.94,4.48-3.78,4.53-3.93a.66.66,0,0,1,.25-.44c.08-.06,8.67-6.64,17.52-13,5.21-3.77,9.49-6.74,12.73-8.83,4.44-2.88,6.22-3.67,7.12-3.79.11-1.83.09-6.8-3.08-9.37A8.11,8.11,0,0,0,93.66,27.21ZM64.42,64.34Z"/><path d="M40.8,88.7a.63.63,0,0,1-.33-.09c-1.44-.85-2.11-1.36-2.27-2.07s.25-1.23.79-2a18.36,18.36,0,0,0,1.24-2c.31-.57,1.23-2.29,14.6-12.08,5.94-4.35,11.76-8.4,12.85-9.15a4.35,4.35,0,0,1,.79-1.22c5.18-6.07,33.65-22,34.86-22.72a.73.73,0,0,1,.25-.08,9.15,9.15,0,0,1,7.77,2.49c4.51,4.59,3.63,13.7,3.55,14.43,0,1.21-1.07,3.52-9.52,9.62-4,2.85-8,5.38-9,6-.24,1.36-1.76,2.78-4.73,4.45a76.32,76.32,0,0,1-9.85,4.39c-6.44,2.44-13,4.37-14.08,4.7-2,2.1-7.16,3.62-15.21,4.52-6,.67-11.62.74-11.67.74Zm63-50.11C101.78,39.75,74.32,55.25,69.45,61a2.54,2.54,0,0,0-.61.95.61.61,0,0,1-.26.37c-.06,0-6.46,4.47-13,9.26C44.16,79.9,41.77,82.42,41.37,83.18A19.91,19.91,0,0,1,40,85.29a3.24,3.24,0,0,0-.58,1c0,.18.55.56,1.51,1.14,1,0,6-.13,11.37-.73,7.79-.87,12.82-2.34,14.53-4.24a.58.58,0,0,1,.3-.18c.07,0,7.16-2.07,14.15-4.73A75,75,0,0,0,91,73.23c3.71-2.08,4.11-3.29,4.11-3.71a.62.62,0,0,1,.3-.54s4.67-2.88,9.23-6.17c8.11-5.85,9-8,9-8.61v-.07c0-.09,1-9.18-3.19-13.42A7.87,7.87,0,0,0,103.84,38.59ZM68.22,61.75Z"/><path d="M43.93,94.44a2.85,2.85,0,0,1-2.51-1c-1.08-1.53.51-4,.7-4.27a.63.63,0,0,1,.47-.28C65.9,86.75,84,76.93,95.14,69.07a101.17,101.17,0,0,0,18.73-16.73.71.71,0,0,1,.42-.23,3.13,3.13,0,0,1,3.19,1.1c1.11,1.49,1,4.44-.31,8.75A51.27,51.27,0,0,1,115,67.83s0,0,0,0A41.32,41.32,0,0,1,104.67,80.1a54.53,54.53,0,0,1-11.9,7.31A59.87,59.87,0,0,1,79,91.88c-2.35,1.56-8.28,2.39-17.62,2.46-7,.06-13.47-.34-13.54-.35a.56.56,0,0,1-.35-.13L47,94A13.2,13.2,0,0,1,43.93,94.44ZM43,90.15c-.43.73-1,2-.56,2.56.2.28,1,.84,4.21,0,1.38-.35,2.41-.61,3.06-.76l.68-.15.21,0a.66.66,0,0,1,.73.47.62.62,0,0,1-.15.62c2.53.1,6.24.21,10.12.18,11.51-.1,15.6-1.31,17-2.31a.54.54,0,0,1,.27-.11,59.88,59.88,0,0,0,13.67-4.41c6.81-3.12,16.06-8.93,21.53-19a52.86,52.86,0,0,0,2.15-5.7c1.15-3.79,1.33-6.49.5-7.61a1.81,1.81,0,0,0-1.75-.61A105.12,105.12,0,0,1,95.92,70.1,115.6,115.6,0,0,1,73.27,82.62,105.75,105.75,0,0,1,43,90.15Zm71.34-22.59h0Z"/><path d="M103.27,31.18a.64.64,0,0,1-.52-.27,18,18,0,0,0-4.42-4.07,10.92,10.92,0,0,0-11-.92.62.62,0,0,1-.63-.05.63.63,0,0,1-.28-.57,38.24,38.24,0,0,1,1.12-6.77c1.28-4.93,3.25-8.42,5.86-10.37a9.1,9.1,0,0,1,7.8-1.49c.36,0,3.2-.54,18-6.62a.63.63,0,0,1,.62.07.65.65,0,0,1,.27.56,64,64,0,0,1-2.61,13.81,34.55,34.55,0,0,1-5,10.3,15.86,15.86,0,0,1-9.1,6.37ZM92,23.58a13,13,0,0,1,7,2.2,19.3,19.3,0,0,1,4.48,4c7-1.9,10.79-9.54,12.72-15.68a63.64,63.64,0,0,0,2.47-12.49C103.85,7.73,101.45,8,101.07,7.94h0a7.9,7.9,0,0,0-6.82,1.24c-4.7,3.52-6,12.17-6.37,15.16A11.93,11.93,0,0,1,92,23.58Z"/><path d="M114.37,43.65a.63.63,0,0,1-.43-.17c-.06,0-6-5.52-10.26-5.94a.64.64,0,0,1-.14-1.25c.07,0,.23-.27.26-.82a11.79,11.79,0,0,0-1.12-4.7.62.62,0,0,1,0-.56.65.65,0,0,1,.46-.31,15.46,15.46,0,0,0,4.41-1.52,12.1,12.1,0,0,0,6.18-6.95.61.61,0,0,1,.36-.39s3.61-1.52,7.33-2.78c7-2.37,8.5-2,9.1-1.26a.61.61,0,0,1,.15.41,47.66,47.66,0,0,1-2,12.68,23.78,23.78,0,0,1-4.8,9,13.36,13.36,0,0,1-9.5,4.57Zm-9.46-7.2c4.06,1,8.66,5,9.7,5.9,6-.44,10.38-4.69,12.86-12.62a47.15,47.15,0,0,0,1.95-12,6.62,6.62,0,0,0-2.52.24,49.07,49.07,0,0,0-5.2,1.52c-3,1-5.94,2.23-6.81,2.59a13.63,13.63,0,0,1-6.75,7.42,17.77,17.77,0,0,1-4,1.48C105.06,33.51,105.31,35.33,104.91,36.45Zm-1.31-.18Zm0,0Zm0,0Zm0,0Z"/><path d="M105.37,36.89a.64.64,0,0,1-.1-1.27c.13,0,13.35-2.32,17.83-9.39a.65.65,0,0,1,1.09.69c-2,3.19-5.8,5.84-11.21,7.87a43.82,43.82,0,0,1-7.5,2.09Z"/><path d="M95.51,25.43a.64.64,0,0,1-.35-1.18s4.14-2.73,8.34-6.08c6.92-5.52,8.79-8.5,9.15-10a.64.64,0,0,1,1.25.29c-.58,2.51-3.82,6.12-9.6,10.74-4.25,3.39-8.39,6.12-8.43,6.15A.68.68,0,0,1,95.51,25.43Z"/><path d="M42.2,94h-.06c-2.43-.23-3.34-2.46-3.94-3.94-.2-.49-.53-1.31-.73-1.39a2.67,2.67,0,0,1-1.7-1.77c-.5-1.9,1.24-4.16,1.44-4.41a.52.52,0,0,1,.21-.18l6.18-3.12a.64.64,0,0,1,.7,1.07c-2.94,2.4-3.51,3.83-3.54,3.93a.62.62,0,0,1-.21.31c-.84.68-1.24,1.3-1.15,1.75s1.12,1.07,1.58,1.2a.62.62,0,0,1,.42.4c.41.16,2.29.5,10.83-.53,5-.61,9.78-1.38,9.82-1.39a.64.64,0,0,1,.4,1.2C59.4,88.7,49.9,89.54,44.8,90l-2.08.19c-.44,0-.71.17-.8.38-.24.53.34,1.76.81,2.42a.65.65,0,0,1-.53,1ZM38.13,83.38c-.47.63-1.39,2.16-1.11,3.18a1.37,1.37,0,0,0,.93.9c.71.29,1,1.13,1.44,2.11a7,7,0,0,0,1.42,2.48,2.77,2.77,0,0,1-.06-2,1.75,1.75,0,0,1,.8-.84,2,2,0,0,1-1.08-.43,1,1,0,0,1-.17-.19c-.62-.24-1.92-.87-2.16-2.08-.19-.93.3-1.9,1.46-2.88a6.38,6.38,0,0,1,.9-1.42Zm3.31,4.72Z"/></g></g></svg>